<svg xmlns="http://www.w3.org/2000/svg" width="960" height="560"><circle cx="467" cy="282" r="217" fill="#fbb03b" stroke="#ccc" stroke-miterlimit="10"/><path d="M537.7 163c16.5 32.2 23 67 9.9 99.8-12.2 31.8-44.1 61.6-83.4 60.6-39.3 1-71.1-28.8-83.4-60.6-13.1-32.8-6.6-67.6 9.9-99.8" fill="none" stroke="#fff" stroke-width="15" stroke-linecap="round" stroke-miterlimit="10"/><path d="M448.3 163l-8.1 38.3m37-38.3l8.1 38.3" fill="none" stroke="#fff" stroke-width="4" stroke-linecap="round" stroke-miterlimit="10"/><path d="M364.8 347.5h4.6v52.7h-4.6v-52.7zm30.1 48.6v4.1h-23.5v-4.1h23.5zm9.2-48.6h4.5v52.7h-4.5v-52.7zm40.4 49.5v4.1c-14.1-.9-24.8-11.7-24.8-27.2s10.7-26.2 24.8-27.2v4.1c-11.5.9-20.1 10-20.1 23.1 0 12.9 8.6 22.1 20.1 23.1zm21.8-19.6h-21.8v-4h21.8v4zm-19.9-26.7v-4.1c8.3.1 14.7 3.7 19.1 9.3l-3.8 2.4c-3.2-4.5-9-7.5-15.3-7.6zm0 50.4V397c5.9 0 12.2-2.5 15.5-6.6V379h4.3v13.5c-4.8 5.6-11.5 8.6-19.8 8.6zm35.9-29.9h31.4v4.1h-35.8v-27.8h4.4v23.7zm0 6.1v22.9h-4.4v-22.9h4.4zm33.3-29.8h4.4v52.7h-4.4v-52.7zm29.1 4.1h-15.3v-4.1h15.3v4.1zm6.5-4.1v52.7h-4.5v-52.7h4.5zm17.2 0v4.1h-15.2v-4.1h15.2z" fill="#fff"/></svg>